# Blender 4.2.0
# www.blender.org
o m853
v 0.025000 0.025000 0.025000
v 0.025000 0.061539 0.025000
v 0.061539 0.025000 0.025000
v 0.061539 0.061539 0.025000
v 0.061539 0.025000 0.207692
v 0.025000 0.025000 0.207692
v 0.025000 0.061539 0.207692
v 0.061539 0.061539 0.207692
v 0.755769 0.025000 0.025000
v 0.719231 0.061539 0.025000
v 0.719231 0.025000 0.025000
v 0.755769 0.061539 0.025000
v 0.755769 0.025000 0.207692
v 0.719231 0.025000 0.207692
v 0.719231 0.061539 0.207692
v 0.755769 0.061539 0.207692
v 0.025000 0.098077 0.025000
v 0.755769 0.098077 0.025000
v 0.025000 0.098077 0.207692
v 0.755769 0.098077 0.207692
v 0.025000 0.280769 0.025000
v 0.061539 0.098077 0.025000
v 0.061539 0.280769 0.025000
v 0.061539 0.098077 0.207692
v 0.025000 0.280769 0.207692
v 0.061539 0.280769 0.207692
v 0.719231 0.098077 0.025000
v 0.719231 0.280769 0.025000
v 0.755769 0.280769 0.025000
v 0.719231 0.098077 0.207692
v 0.719231 0.280769 0.207692
v 0.755769 0.280769 0.207692
v 0.025000 0.317308 0.025000
v 0.755769 0.317308 0.025000
v 0.025000 0.317308 0.207692
v 0.755769 0.317308 0.207692
v 0.061539 0.098077 0.028654
v 0.719231 0.098077 0.028654
v 0.061539 0.280769 0.028654
v 0.719231 0.280769 0.028654
v 0.025000 0.500000 0.025000
v 0.061539 0.317308 0.025000
v 0.061539 0.500000 0.025000
v 0.061539 0.317308 0.207692
v 0.025000 0.500000 0.207692
v 0.061539 0.500000 0.207692
v 0.719231 0.317308 0.025000
v 0.719231 0.500000 0.025000
v 0.755769 0.500000 0.025000
v 0.719231 0.317308 0.207692
v 0.719231 0.500000 0.207692
v 0.755769 0.500000 0.207692
v 0.025000 0.536538 0.025000
v 0.755769 0.536538 0.025000
v 0.025000 0.536538 0.207692
v 0.755769 0.536538 0.207692
v 0.061539 0.317308 0.028654
v 0.719231 0.317308 0.028654
v 0.061539 0.500000 0.028654
v 0.719231 0.500000 0.028654
v 0.025000 0.719231 0.025000
v 0.061539 0.536538 0.025000
v 0.061539 0.719231 0.025000
v 0.061539 0.536538 0.207692
v 0.025000 0.719231 0.207692
v 0.061539 0.719231 0.207692
v 0.719231 0.536538 0.025000
v 0.719231 0.719231 0.025000
v 0.755769 0.719231 0.025000
v 0.719231 0.536538 0.207692
v 0.719231 0.719231 0.207692
v 0.755769 0.719231 0.207692
v 0.025000 0.755769 0.025000
v 0.755769 0.755769 0.025000
v 0.025000 0.755769 0.207692
v 0.755769 0.755769 0.207692
v 0.061539 0.536538 0.028654
v 0.719231 0.536538 0.028654
v 0.061539 0.719231 0.028654
v 0.719231 0.719231 0.028654
v 0.025000 0.938462 0.025000
v 0.061539 0.755769 0.025000
v 0.061539 0.938462 0.025000
v 0.061539 0.755769 0.207692
v 0.025000 0.938462 0.207692
v 0.061539 0.938462 0.207692
v 0.719231 0.755769 0.025000
v 0.719231 0.938462 0.025000
v 0.755769 0.938462 0.025000
v 0.719231 0.755769 0.207692
v 0.719231 0.938462 0.207692
v 0.755769 0.938462 0.207692
v 0.025000 0.975000 0.025000
v 0.755769 0.975000 0.025000
v 0.025000 0.975000 0.207692
v 0.755769 0.975000 0.207692
v 0.061539 0.755769 0.028654
v 0.719231 0.755769 0.028654
v 0.061539 0.938462 0.028654
v 0.719231 0.938462 0.028654
vn -0.0000 -0.0000 -1.0000
vn -0.0000 -1.0000 -0.0000
vn -1.0000 -0.0000 -0.0000
vn -0.0000 1.0000 -0.0000
vn 1.0000 -0.0000 -0.0000
vn -0.0000 -0.0000 1.0000
s 0
f 1//1 2//1 3//1
f 3//1 2//1 4//1
f 1//2 5//2 6//2
f 1//2 3//2 5//2
f 1//3 6//3 2//3
f 2//3 6//3 7//3
f 2//4 7//4 8//4
f 2//4 8//4 4//4
f 3//5 8//5 5//5
f 3//5 4//5 8//5
f 5//6 7//6 6//6
f 5//6 8//6 7//6
f 9//1 11//1 10//1
f 12//1 9//1 10//1
f 11//2 13//2 14//2
f 11//2 9//2 13//2
f 10//3 11//3 14//3
f 15//3 10//3 14//3
f 16//4 10//4 15//4
f 12//4 10//4 16//4
f 9//5 16//5 13//5
f 9//5 12//5 16//5
f 14//6 13//6 15//6
f 15//6 13//6 16//6
f 2//1 17//1 12//1
f 12//1 17//1 18//1
f 7//2 2//2 16//2
f 16//2 2//2 12//2
f 2//3 7//3 17//3
f 17//3 7//3 19//3
f 17//4 19//4 20//4
f 17//4 20//4 18//4
f 16//5 12//5 20//5
f 20//5 12//5 18//5
f 7//6 16//6 19//6
f 19//6 16//6 20//6
f 17//1 21//1 22//1
f 22//1 21//1 23//1
f 19//2 17//2 24//2
f 24//2 17//2 22//2
f 17//3 19//3 21//3
f 21//3 19//3 25//3
f 21//4 25//4 26//4
f 21//4 26//4 23//4
f 24//5 22//5 26//5
f 26//5 22//5 23//5
f 19//6 24//6 25//6
f 25//6 24//6 26//6
f 27//1 28//1 18//1
f 18//1 28//1 29//1
f 27//2 20//2 30//2
f 27//2 18//2 20//2
f 27//3 30//3 28//3
f 28//3 30//3 31//3
f 32//4 28//4 31//4
f 29//4 28//4 32//4
f 20//5 18//5 32//5
f 32//5 18//5 29//5
f 20//6 31//6 30//6
f 31//6 20//6 32//6
f 21//1 33//1 29//1
f 29//1 33//1 34//1
f 25//2 21//2 32//2
f 32//2 21//2 29//2
f 21//3 25//3 33//3
f 33//3 25//3 35//3
f 33//4 35//4 36//4
f 33//4 36//4 34//4
f 32//5 29//5 36//5
f 36//5 29//5 34//5
f 25//6 32//6 35//6
f 35//6 32//6 36//6
f 22//1 23//1 27//1
f 27//1 23//1 28//1
f 37//2 22//2 38//2
f 22//2 27//2 38//2
f 23//3 22//3 37//3
f 39//3 23//3 37//3
f 40//4 23//4 39//4
f 23//4 40//4 28//4
f 38//5 27//5 40//5
f 40//5 27//5 28//5
f 37//6 38//6 39//6
f 39//6 38//6 40//6
f 33//1 41//1 42//1
f 42//1 41//1 43//1
f 35//2 33//2 44//2
f 44//2 33//2 42//2
f 33//3 35//3 41//3
f 41//3 35//3 45//3
f 41//4 45//4 46//4
f 41//4 46//4 43//4
f 44//5 42//5 46//5
f 46//5 42//5 43//5
f 35//6 44//6 45//6
f 45//6 44//6 46//6
f 47//1 48//1 34//1
f 34//1 48//1 49//1
f 47//2 36//2 50//2
f 47//2 34//2 36//2
f 47//3 50//3 48//3
f 48//3 50//3 51//3
f 52//4 48//4 51//4
f 49//4 48//4 52//4
f 36//5 34//5 52//5
f 52//5 34//5 49//5
f 36//6 51//6 50//6
f 51//6 36//6 52//6
f 41//1 53//1 49//1
f 49//1 53//1 54//1
f 45//2 41//2 52//2
f 52//2 41//2 49//2
f 41//3 45//3 53//3
f 53//3 45//3 55//3
f 53//4 55//4 56//4
f 53//4 56//4 54//4
f 52//5 49//5 56//5
f 56//5 49//5 54//5
f 45//6 52//6 55//6
f 55//6 52//6 56//6
f 42//1 43//1 47//1
f 47//1 43//1 48//1
f 57//2 42//2 58//2
f 42//2 47//2 58//2
f 43//3 42//3 57//3
f 59//3 43//3 57//3
f 60//4 43//4 59//4
f 43//4 60//4 48//4
f 58//5 47//5 60//5
f 60//5 47//5 48//5
f 57//6 58//6 59//6
f 59//6 58//6 60//6
f 53//1 61//1 62//1
f 62//1 61//1 63//1
f 55//2 53//2 64//2
f 64//2 53//2 62//2
f 53//3 55//3 61//3
f 61//3 55//3 65//3
f 61//4 65//4 66//4
f 61//4 66//4 63//4
f 64//5 62//5 66//5
f 66//5 62//5 63//5
f 55//6 64//6 65//6
f 65//6 64//6 66//6
f 67//1 68//1 54//1
f 54//1 68//1 69//1
f 67//2 56//2 70//2
f 67//2 54//2 56//2
f 67//3 70//3 68//3
f 68//3 70//3 71//3
f 72//4 68//4 71//4
f 69//4 68//4 72//4
f 56//5 54//5 72//5
f 72//5 54//5 69//5
f 56//6 71//6 70//6
f 71//6 56//6 72//6
f 61//1 73//1 69//1
f 69//1 73//1 74//1
f 65//2 61//2 72//2
f 72//2 61//2 69//2
f 61//3 65//3 73//3
f 73//3 65//3 75//3
f 73//4 75//4 76//4
f 73//4 76//4 74//4
f 72//5 69//5 76//5
f 76//5 69//5 74//5
f 65//6 72//6 75//6
f 75//6 72//6 76//6
f 62//1 63//1 67//1
f 67//1 63//1 68//1
f 77//2 62//2 78//2
f 62//2 67//2 78//2
f 63//3 62//3 77//3
f 79//3 63//3 77//3
f 80//4 63//4 79//4
f 63//4 80//4 68//4
f 78//5 67//5 80//5
f 80//5 67//5 68//5
f 77//6 78//6 79//6
f 79//6 78//6 80//6
f 73//1 81//1 82//1
f 82//1 81//1 83//1
f 75//2 73//2 84//2
f 84//2 73//2 82//2
f 73//3 75//3 81//3
f 81//3 75//3 85//3
f 81//4 85//4 86//4
f 81//4 86//4 83//4
f 84//5 82//5 86//5
f 86//5 82//5 83//5
f 75//6 84//6 85//6
f 85//6 84//6 86//6
f 87//1 88//1 74//1
f 74//1 88//1 89//1
f 87//2 76//2 90//2
f 87//2 74//2 76//2
f 87//3 90//3 88//3
f 88//3 90//3 91//3
f 92//4 88//4 91//4
f 89//4 88//4 92//4
f 76//5 74//5 92//5
f 92//5 74//5 89//5
f 76//6 91//6 90//6
f 91//6 76//6 92//6
f 81//1 93//1 89//1
f 89//1 93//1 94//1
f 85//2 81//2 92//2
f 92//2 81//2 89//2
f 81//3 85//3 93//3
f 93//3 85//3 95//3
f 93//4 95//4 96//4
f 93//4 96//4 94//4
f 92//5 89//5 96//5
f 96//5 89//5 94//5
f 85//6 92//6 95//6
f 95//6 92//6 96//6
f 82//1 83//1 87//1
f 87//1 83//1 88//1
f 97//2 82//2 98//2
f 82//2 87//2 98//2
f 83//3 82//3 97//3
f 99//3 83//3 97//3
f 100//4 83//4 99//4
f 83//4 100//4 88//4
f 98//5 87//5 100//5
f 100//5 87//5 88//5
f 97//6 98//6 99//6
f 99//6 98//6 100//6
