# Created by Open3D 
# object name: m690
# number of vertices: 180
# number of triangles: 368
v 0.063421 0.23314 0.087676
vn -1e-06 -0 -0
v 0.089507 0.975 0.095695
vn 0 0 0
v 0.11379 0.233133 0.08921
vn 2.7e-05 -1.2e-05 1e-06
v 0.106885 0.215834 0.088831
vn 1e-06 -0 0
v 0.11439 0.213798 0.08904
vn -3e-06 3e-06 -0
v 0.11439 0.216851 0.089069
vn 7e-06 -5e-06 0
v 0.106884 0.218209 0.088854
vn 2.59534 -3.04479 0.418097
v 0.113594 0.21719 0.089049
vn -1.86101 -5.84692 -0.865964
v 0.107781 0.217038 0.104543
vn -1.68188 -5.68467 -1.44019
v 0.094299 0.236528 0.088649
vn 0.773904 6.19709 0.014852
v 0.113807 0.233478 0.088658
vn 2.11287 5.66093 0.016023
v 0.107796 0.233293 0.072733
vn 1.60518 5.6846 -1.41987
v 0.088324 0.237207 0.088474
vn 0.410557 6.18682 -0.097721
v 0.09259 0.233373 0.064279
vn 0.366905 5.67803 -2.09693
v 0.088006 0.237207 0.088464
vn -0.072154 6.21445 -0.598708
v 0.088114 0.237206 0.088644
vn -0.007312 6.20143 0.62951
v 0.088145 0.237207 0.088469
vn -0.010414 6.23843 -0.502027
v 0.08756 0.237207 0.088451
vn -0.438208 5.54663 -0.066516
v 0.064018 0.23348 0.087697
vn -1.99636 5.83901 -0.059018
v 0.063931 0.233388 0.097087
vn -1.97003 5.667 0.7904
v 0.075254 0.233264 0.110042
vn -1.02754 5.67578 1.88133
v 0.092562 0.233238 0.112956
vn 0.343178 5.68086 2.12204
v 0.107782 0.233322 0.104598
vn 1.55965 5.6912 1.43222
v 0.113591 0.233472 0.089207
vn 1.92027 5.83359 0.787045
v 0.135526 0.221946 0.088663
vn 3.78575 4.43664 -0.007173
v 0.124463 0.221891 0.059325
vn 2.88559 4.44501 -2.48272
v 0.075284 0.233342 0.067177
vn -1.05546 5.67609 -1.84492
v 0.096385 0.22204 0.043629
vn 0.646282 4.3904 -3.79679
v 0.064048 0.233214 0.080171
vn -1.9296 5.73071 -0.839772
v 0.064395 0.221982 0.04909
vn -1.87366 4.4025 -3.35482
v 0.043541 0.222086 0.072951
vn -3.54062 4.4041 -1.32246
v 0.043587 0.221782 0.104191
vn -3.56793 4.43111 1.3462
v 0.064378 0.22189 0.128179
vn -1.87328 4.40799 3.34332
v 0.096335 0.221842 0.133615
vn 0.637095 4.39931 3.81136
v 0.124468 0.221998 0.118073
vn 2.87064 4.40863 2.50389
v 0.150071 0.204986 0.08866
vn 4.97144 2.44417 0.01058
v 0.135696 0.205019 0.050265
vn 3.7856 2.42923 -3.25677
v 0.098915 0.204873 0.029838
vn 0.853116 2.40678 -4.99419
v 0.057192 0.204798 0.036871
vn -2.46405 2.41607 -4.40412
v 0.029933 0.204828 0.068217
vn -4.68253 2.44645 -1.74947
v 0.029887 0.20477 0.109006
vn -4.67169 2.44625 1.74303
v 0.05703 0.204809 0.140348
vn -2.46797 2.40833 4.38691
v 0.098841 0.204746 0.147433
vn 0.848244 2.40309 4.99402
v 0.13555 0.204949 0.127067
vn 3.79066 2.41015 3.27763
v 0.155249 0.184632 0.088651
vn 5.40846 0.01914 0.013089
v 0.139577 0.184695 0.047072
vn 4.11243 -0.023594 -3.54788
v 0.099796 0.184904 0.025
vn 0.934859 0.028289 -5.41609
v 0.054527 0.184823 0.032651
vn -2.68516 -0.00529 -4.75208
v 0.025 0.184828 0.066522
vn -5.06101 0.01599 -1.88499
v 0.025052 0.184738 0.110635
vn -5.09036 0.038883 1.89273
v 0.054508 0.184752 0.144539
vn -2.68553 -0.002769 4.76739
v 0.099728 0.184684 0.152246
vn 0.924624 -0.003683 5.4094
v 0.139437 0.184565 0.130205
vn 4.11801 -0.029103 3.55092
v 0.026864 0.176603 0.109989
vn -0.29875 -1.41133 0.118833
v 0.055556 0.176627 0.142831
vn -0.136419 -1.4214 0.261729
v 0.099368 0.176561 0.150288
vn 0.042834 -1.40672 0.282843
v 0.13788 0.176774 0.12894
vn 0.230674 -1.47179 0.209511
v 0.153255 0.17649 0.088646
vn 0.323633 -1.43626 0.003158
v 0.026973 0.176681 0.067126
vn -0.294158 -1.45528 -0.123763
v 0.05567 0.176665 0.034371
vn -0.127967 -1.43014 -0.261349
v 0.099439 0.176744 0.026882
vn 0.045488 -1.39625 -0.293957
v 0.137941 0.17654 0.048396
vn 0.214581 -1.43921 -0.201692
v 0.135524 0.205663 0.088649
vn -3.79541 -4.44054 -0.02034
v 0.113805 0.217194 0.088647
vn -2.11494 -5.62703 -0.214263
v 0.107792 0.217347 0.072785
vn -1.56821 -5.67352 1.37823
v 0.124462 0.205947 0.059274
vn -2.8695 -4.40543 2.49565
v 0.092586 0.217088 0.064328
vn -0.337778 -5.67202 2.20062
v 0.096381 0.205755 0.043678
vn -0.640842 -4.39985 3.80352
v 0.07528 0.217057 0.067226
vn 1.04896 -5.68007 1.93289
v 0.064394 0.205698 0.049035
vn 1.85977 -4.41645 3.35536
v 0.064046 0.217269 0.080171
vn 1.93316 -5.68463 0.736885
v 0.043538 0.205801 0.073
vn 3.54177 -4.43535 1.33365
v 0.063929 0.217104 0.097074
vn 1.97279 -5.70518 -0.715891
v 0.043583 0.205837 0.104243
vn 3.53875 -4.43505 -1.33675
v 0.07525 0.217319 0.110094
vn 1.04792 -5.65479 -1.87659
v 0.064374 0.205606 0.128228
vn 1.89026 -4.39566 -3.3838
v 0.092558 0.217293 0.113008
vn -0.381749 -5.65984 -2.12905
v 0.096331 0.205897 0.133667
vn -0.645333 -4.38116 -3.7953
v 0.150069 0.188702 0.088647
vn -4.97517 -2.46093 -0.012951
v 0.135693 0.188734 0.050314
vn -3.80016 -2.40274 3.27195
v 0.098914 0.188589 0.029784
vn -0.860543 -2.417 4.98527
v 0.057188 0.188853 0.036923
vn 2.45955 -2.41623 4.38977
v 0.029932 0.188884 0.068165
vn 4.6617 -2.44901 1.75232
v 0.029883 0.188825 0.109058
vn 4.65965 -2.45229 -1.75274
v 0.057029 0.188525 0.140293
vn 2.47763 -2.40938 -4.40253
v 0.09884 0.188802 0.147381
vn -0.853448 -2.39442 -4.9885
v 0.124467 0.205714 0.118019
vn -2.89119 -4.41228 -2.49282
v 0.135549 0.188666 0.127013
vn -3.79623 -2.43349 -3.27694
v 0.102412 0.218436 0.100241
vn 1.62438 -3.25952 1.71634
v 0.10693 0.218211 0.088644
vn 2.53312 -3.46929 0.082311
v 0.091346 0.218375 0.106339
vn 0.43081 -3.25425 2.49874
v 0.078778 0.218394 0.104192
vn -1.12691 -3.09121 2.26828
v 0.070495 0.218145 0.094793
vn -2.2691 -3.10154 1.28606
v 0.070512 0.218265 0.082454
vn -2.22028 -2.80049 -1.271
v 0.078789 0.218358 0.073054
vn -1.04201 -3.37931 -2.1653
v 0.09136 0.218381 0.070946
vn 0.404423 -3.0488 -2.39552
v 0.10242 0.218322 0.077094
vn 1.74111 -3.08324 -1.92953
v 0.099167 0.218013 0.073982
vn 2.24207 2.72474 -3.28294
v 0.099142 0.025322 0.07387
vn 1.79841 -2.84469 -2.56481
v 0.093902 0.025347 0.071219
vn 0.952376 -2.8258 -2.98365
v 0.08231 0.218037 0.07129
vn -1.08459 2.71753 -3.74489
v 0.082282 0.025344 0.071281
vn -0.942846 -2.85348 -2.99322
v 0.077044 0.025319 0.073819
vn -1.77891 -2.82383 -2.5717
v 0.072902 0.217971 0.077936
vn -3.38461 2.61311 -2.5421
v 0.072876 0.025279 0.077844
vn -2.48129 -2.82459 -1.89226
v 0.070191 0.025229 0.08291
vn -2.93898 -2.817 -1.01673
v 0.069288 0.218205 0.088626
vn -3.10027 2.81504 0.023643
v 0.069263 0.025174 0.088527
vn -3.09916 -2.81392 -0.02503
v 0.070188 0.02512 0.094139
vn -2.93777 -2.82068 0.961686
v 0.072888 0.218102 0.099339
vn -2.78264 2.79375 2.07167
v 0.072862 0.025071 0.099223
vn -2.4704 -2.81705 1.84197
v 0.077026 0.025033 0.10319
vn -1.78964 -2.84984 2.51031
v 0.082291 0.218038 0.105956
vn -1.12117 2.69259 3.85141
v 0.082266 0.025008 0.10584
vn -0.948141 -2.82917 2.92401
v 0.088075 0.025 0.106743
vn 0.016148 -2.82469 3.07145
v 0.0881 0.218031 0.106859
vn -0.104402 2.6519 4.1086
v 0.093886 0.02501 0.105779
vn 0.938795 -2.85809 2.93445
v 0.099169 0.218066 0.103356
vn 2.12089 2.72479 3.22202
v 0.099144 0.025036 0.103241
vn 1.77437 -2.82247 2.51347
v 0.103292 0.025076 0.099215
vn 2.479 -2.83073 1.83735
v 0.106905 0.02518 0.088542
vn 3.10018 -2.81482 -0.023877
v 0.105977 0.025125 0.09416
vn 2.93581 -2.81794 0.967744
v 0.103317 0.218106 0.099331
vn 3.94174 2.38374 2.50607
v 0.093927 0.218038 0.071332
vn 1.44822 2.5929 -4.02092
v 0.077051 0.218064 0.103306
vn -2.89379 2.38084 3.77437
v 0.093911 0.218041 0.105895
vn 1.45761 2.62371 4.02171
v 0.070213 0.218151 0.094245
vn -2.93641 2.82907 0.996724
v 0.070217 0.21826 0.083005
vn -2.93222 2.81891 -0.966204
v 0.077069 0.218349 0.073936
vn -1.80033 2.84526 -2.50065
v 0.10333 0.218314 0.077952
vn 2.06377 2.75797 -1.45456
v 0.103305 0.025283 0.077857
vn 2.4792 -2.81906 -1.89383
v 0.088122 0.218046 0.070429
vn -0.110164 2.6932 -4.03369
v 0.088096 0.025355 0.070316
vn -0.015226 -2.82078 -3.13211
v 0.106001 0.181287 0.083008
vn 2.58943 1.71721 -2.69067
v 0.106006 0.217926 0.083023
vn 3.74574 2.70042 -1.2689
v 0.105999 0.170432 0.082996
vn 3.56994 -2.75875 -2.74058
v 0.10598 0.025234 0.082931
vn 2.94163 -2.81956 -1.01325
v 0.106926 0.18259 0.088626
vn 1.58877 -2.41045 -0.245812
v 0.106638 0.169037 0.086873
vn 3.4277 -3.09723 -0.648617
v 0.106924 0.169359 0.088616
vn 1.62076 2.39932 -1.03081
v 0.106584 0.181552 0.090688
vn -2.75726 2.33314 1.55065
v 0.111745 0.181553 0.0907
vn 2.77433 2.32549 1.82457
v 0.111601 0.182588 0.088887
vn 2.7945 3.04002 1.08001
v 0.106341 0.179842 0.092118
vn -2.90203 1.70489 2.0715
v 0.111701 0.179843 0.092125
vn 2.93612 1.75502 2.68199
v 0.106193 0.178137 0.093041
vn -2.75648 0.947062 2.42998
v 0.111673 0.178137 0.093042
vn 2.79831 0.98666 3.02931
v 0.106143 0.176098 0.093352
vn -2.81879 0.032753 2.60166
v 0.111663 0.176099 0.093354
vn 2.85597 0.031779 3.20567
v 0.106192 0.173726 0.093039
vn -2.73132 -0.922359 2.4417
v 0.111672 0.173727 0.09304
vn 2.77127 -0.964842 3.02994
v 0.10634 0.172039 0.092114
vn -2.89844 -1.73814 2.0741
v 0.1117 0.17204 0.092122
vn 2.92953 -1.77585 2.66452
v 0.106582 0.170357 0.090683
vn -2.74696 -2.33875 1.51832
v 0.111743 0.170358 0.090685
vn 2.78278 -2.40716 2.04108
v 0.106876 0.169357 0.088877
vn -2.75912 -2.86554 0.613113
v 0.111798 0.169357 0.088882
vn 2.79099 -2.87489 0.987363
v 0.11166 0.169038 0.086881
vn 2.67897 -3.98119 -0.083264
v 0.111721 0.169396 0.084883
vn 2.78701 -3.18212 -1.12275
v 0.106878 0.182587 0.088887
vn -2.75695 2.75301 0.639364
v 0.111661 0.182947 0.086892
vn 2.80352 3.13833 0.105424
v 0.10664 0.182946 0.086884
vn -2.6984 3.05126 0.208087
v 0.111722 0.182627 0.084887
vn 2.68808 2.80914 -1.06366
v 0.106302 0.182287 0.084885
vn -3.15926 2.81428 -0.518586
v 0.111578 0.181627 0.083077
vn 2.65565 2.46515 -2.08223
v 0.106018 0.181626 0.083085
vn -2.12374 1.72792 -1.74861
v 0.105285 0.179944 0.081645
vn -2.44181 1.60069 -1.19139
v 0.111621 0.179944 0.081651
vn 2.83002 1.73405 -2.59775
v 0.111649 0.177918 0.080729
vn 2.87211 0.925641 -2.99032
v 0.104794 0.177917 0.080728
vn -2.51066 0.815164 -1.52744
v 0.111659 0.175886 0.080408
vn 2.83489 0.015268 -3.13563
v 0.104644 0.175885 0.080402
vn -2.48843 -0.005727 -1.68591
v 0.111649 0.173847 0.08072
vn 2.86953 -0.918501 -3.0503
v 0.104794 0.173846 0.080719
vn -2.49292 -0.782809 -1.50125
v 0.11162 0.171803 0.081644
vn 2.7676 -1.84695 -2.6616
v 0.105284 0.171802 0.081638
vn -2.45454 -1.60086 -1.21273
v 0.106301 0.169396 0.084874
vn -2.75678 -2.78597 -0.619111
v 0.106017 0.170431 0.083069
vn 2.48398 -3.67281 -1.36932
v 0.111776 0.170432 0.083078
vn 2.88774 -2.10823 -1.74707
v 0.106002 0.218156 0.094266
vn 2.93931 2.81524 1.01371
f 1//1 2//2 3//3
f 4//4 5//5 6//6
f 7//7 8//8 9//9
f 3//3 2//2 1//1
f 10//10 11//11 12//12
f 13//13 12//12 14//14
f 15//15 16//16 17//17
f 18//18 16//16 15//15
f 19//19 20//20 16//16
f 21//21 16//16 20//20
f 22//22 16//16 21//21
f 23//23 16//16 22//22
f 24//24 11//11 10//10
f 12//12 11//11 25//25
f 14//14 12//12 26//26
f 27//27 14//14 28//28
f 29//29 27//27 30//30
f 19//19 29//29 31//31
f 21//21 20//20 32//32
f 22//22 21//21 33//33
f 23//23 22//22 34//34
f 24//24 23//23 35//35
f 26//26 25//25 36//36
f 28//28 26//26 37//37
f 30//30 28//28 38//38
f 31//31 30//30 39//39
f 32//32 31//31 40//40
f 33//33 32//32 41//41
f 34//34 33//33 42//42
f 35//35 34//34 43//43
f 25//25 35//35 44//44
f 37//37 36//36 45//45
f 38//38 37//37 46//46
f 39//39 38//38 47//47
f 40//40 39//39 48//48
f 41//41 40//40 49//49
f 42//42 41//41 50//50
f 43//43 42//42 51//51
f 44//44 43//43 52//52
f 36//36 44//44 53//53
f 54//54 55//55 51//51
f 55//55 56//56 52//52
f 56//56 57//57 53//53
f 57//57 58//58 45//45
f 59//59 54//54 50//50
f 60//60 59//59 49//49
f 61//61 60//60 48//48
f 58//58 62//62 46//46
f 62//62 61//61 47//47
f 63//63 64//64 65//65
f 66//66 65//65 67//67
f 68//68 67//67 69//69
f 70//70 69//69 71//71
f 72//72 71//71 73//73
f 74//74 73//73 75//75
f 76//76 75//75 77//77
f 78//78 77//77 9//9
f 8//8 64//64 63//63
f 79//79 63//63 66//66
f 80//80 66//66 68//68
f 81//81 68//68 70//70
f 82//82 70//70 72//72
f 83//83 72//72 74//74
f 84//84 74//74 76//76
f 85//85 76//76 78//78
f 86//86 78//78 87//87
f 88//88 87//87 63//63
f 85//85 55//55 54//54
f 86//86 56//56 55//55
f 88//88 57//57 56//56
f 79//79 58//58 57//57
f 84//84 54//54 59//59
f 83//83 59//59 60//60
f 82//82 60//60 61//61
f 81//81 61//61 62//62
f 80//80 62//62 58//58
f 17//17 14//14 27//27
f 15//15 27//27 29//29
f 17//17 16//16 13//13
f 13//13 16//16 10//10
f 18//18 29//29 19//19
f 10//10 16//16 23//23
f 89//89 9//9 77//77
f 90//90 64//64 8//8
f 91//91 77//77 75//75
f 92//92 75//75 73//73
f 93//93 73//73 71//71
f 94//94 71//71 69//69
f 95//95 69//69 67//67
f 7//7 8//8 6//6
f 96//96 67//67 65//65
f 97//97 65//65 64//64
f 98//98 99//99 100//100
f 101//101 102//102 103//103
f 104//104 105//105 106//106
f 107//107 108//108 109//109
f 110//110 111//111 112//112
f 113//113 114//114 115//115
f 116//116 115//115 117//117
f 118//118 119//119 120//120
f 121//121 122//122 120//120
f 123//123 120//120 122//122
f 96//96 124//124 100//100
f 92//92 125//125 112//112
f 126//126 117//117 119//119
f 93//93 127//127 109//109
f 128//128 106//106 108//108
f 129//129 103//103 105//105
f 97//97 130//130 131//131
f 132//132 133//133 102//102
f 134//134 135//135 90//90
f 136//136 137//137 131//131
f 138//138 90//90 7//7
f 139//139 140//140 121//121
f 141//141 142//142 143//143
f 144//144 145//145 142//142
f 146//146 147//147 145//145
f 148//148 149//149 147//147
f 150//150 151//151 149//149
f 152//152 153//153 151//151
f 154//154 155//155 153//153
f 156//156 157//157 155//155
f 157//157 158//158 159//159
f 139//139 158//158 157//157
f 160//160 143//143 161//161
f 162//162 161//161 163//163
f 164//164 163//163 165//165
f 134//134 166//166 165//165
f 167//167 168//168 169//169
f 170//170 169//169 171//171
f 172//172 171//171 173//173
f 174//174 173//173 175//175
f 136//136 176//176 175//175
f 177//177 159//159 158//158
f 178//178 179//179 159//159
f 1//1 3//3 24//24
f 1//1 24//24 10//10
f 1//1 10//10 13//13
f 1//1 13//13 17//17
f 1//1 17//17 15//15
f 1//1 15//15 18//18
f 1//1 18//18 19//19
f 4//4 6//6 8//8
f 4//4 8//8 7//7
f 7//7 9//9 89//89
f 7//7 89//89 123//123
f 7//7 123//123 180//180
f 3//3 1//1 19//19
f 3//3 19//19 18//18
f 3//3 18//18 15//15
f 3//3 15//15 17//17
f 3//3 17//17 13//13
f 3//3 13//13 10//10
f 3//3 10//10 24//24
f 10//10 12//12 13//13
f 13//13 14//14 17//17
f 19//19 16//16 18//18
f 12//12 25//25 26//26
f 14//14 26//26 28//28
f 27//27 28//28 30//30
f 29//29 30//30 31//31
f 19//19 31//31 32//32
f 19//19 32//32 20//20
f 21//21 32//32 33//33
f 22//22 33//33 34//34
f 23//23 34//34 35//35
f 24//24 35//35 25//25
f 24//24 25//25 11//11
f 26//26 36//36 37//37
f 28//28 37//37 38//38
f 30//30 38//38 39//39
f 31//31 39//39 40//40
f 32//32 40//40 41//41
f 33//33 41//41 42//42
f 34//34 42//42 43//43
f 35//35 43//43 44//44
f 25//25 44//44 36//36
f 37//37 45//45 46//46
f 38//38 46//46 47//47
f 39//39 47//47 48//48
f 40//40 48//48 49//49
f 41//41 49//49 50//50
f 42//42 50//50 51//51
f 43//43 51//51 52//52
f 44//44 52//52 53//53
f 36//36 53//53 45//45
f 54//54 51//51 50//50
f 55//55 52//52 51//51
f 56//56 53//53 52//52
f 57//57 45//45 53//53
f 59//59 50//50 49//49
f 60//60 49//49 48//48
f 61//61 48//48 47//47
f 58//58 46//46 45//45
f 62//62 47//47 46//46
f 63//63 65//65 66//66
f 66//66 67//67 68//68
f 68//68 69//69 70//70
f 70//70 71//71 72//72
f 72//72 73//73 74//74
f 74//74 75//75 76//76
f 76//76 77//77 78//78
f 78//78 9//9 87//87
f 8//8 63//63 87//87
f 8//8 87//87 9//9
f 79//79 66//66 80//80
f 80//80 68//68 81//81
f 81//81 70//70 82//82
f 82//82 72//72 83//83
f 83//83 74//74 84//84
f 84//84 76//76 85//85
f 85//85 78//78 86//86
f 86//86 87//87 88//88
f 88//88 63//63 79//79
f 85//85 54//54 84//84
f 86//86 55//55 85//85
f 88//88 56//56 86//86
f 79//79 57//57 88//88
f 84//84 59//59 83//83
f 83//83 60//60 82//82
f 82//82 61//61 81//81
f 81//81 62//62 80//80
f 80//80 58//58 79//79
f 17//17 27//27 15//15
f 15//15 29//29 18//18
f 10//10 23//23 24//24
f 89//89 77//77 91//91
f 89//89 91//91 126//126
f 89//89 126//126 118//118
f 90//90 8//8 7//7
f 91//91 75//75 92//92
f 91//91 92//92 113//113
f 91//91 113//113 116//116
f 92//92 73//73 93//93
f 92//92 93//93 110//110
f 92//92 110//110 125//125
f 93//93 71//71 94//94
f 93//93 94//94 128//128
f 93//93 128//128 107//107
f 93//93 107//107 127//127
f 94//94 69//69 95//95
f 94//94 95//95 129//129
f 94//94 129//129 104//104
f 95//95 67//67 96//96
f 95//95 96//96 132//132
f 95//95 132//132 101//101
f 7//7 6//6 5//5
f 7//7 5//5 4//4
f 96//96 65//65 97//97
f 96//96 97//97 98//98
f 96//96 98//98 124//124
f 97//97 64//64 90//90
f 97//97 90//90 135//135
f 97//97 135//135 130//130
f 98//98 100//100 124//124
f 101//101 103//103 129//129
f 101//101 129//129 95//95
f 104//104 106//106 128//128
f 104//104 128//128 94//94
f 107//107 109//109 127//127
f 110//110 112//112 125//125
f 113//113 115//115 116//116
f 116//116 117//117 126//126
f 116//116 126//126 91//91
f 118//118 120//120 123//123
f 118//118 123//123 89//89
f 121//121 120//120 119//119
f 121//121 119//119 117//117
f 121//121 117//117 115//115
f 121//121 115//115 114//114
f 121//121 114//114 112//112
f 121//121 112//112 111//111
f 121//121 111//111 109//109
f 121//121 109//109 108//108
f 121//121 108//108 106//106
f 121//121 106//106 105//105
f 121//121 105//105 103//103
f 121//121 103//103 102//102
f 121//121 102//102 133//133
f 121//121 133//133 100//100
f 121//121 100//100 99//99
f 121//121 99//99 131//131
f 121//121 131//131 137//137
f 123//123 122//122 180//180
f 96//96 100//100 133//133
f 96//96 133//133 132//132
f 92//92 112//112 114//114
f 92//92 114//114 113//113
f 126//126 119//119 118//118
f 93//93 109//109 111//111
f 93//93 111//111 110//110
f 128//128 108//108 107//107
f 129//129 105//105 104//104
f 97//97 131//131 99//99
f 97//97 99//99 98//98
f 132//132 102//102 101//101
f 134//134 90//90 138//138
f 134//134 138//138 162//162
f 134//134 162//162 164//164
f 134//134 164//164 166//166
f 136//136 131//131 130//130
f 136//136 130//130 135//135
f 136//136 135//135 134//134
f 136//136 134//134 167//167
f 136//136 167//167 170//170
f 136//136 170//170 172//172
f 136//136 172//172 174//174
f 136//136 174//174 176//176
f 138//138 7//7 4//4
f 138//138 4//4 7//7
f 138//138 7//7 180//180
f 138//138 180//180 122//122
f 138//138 122//122 121//121
f 138//138 121//121 140//140
f 138//138 140//140 156//156
f 138//138 156//156 154//154
f 138//138 154//154 152//152
f 138//138 152//152 150//150
f 138//138 150//150 148//148
f 138//138 148//148 146//146
f 138//138 146//146 144//144
f 138//138 144//144 141//141
f 138//138 141//141 160//160
f 139//139 121//121 137//137
f 139//139 137//137 136//136
f 139//139 136//136 178//178
f 139//139 178//178 177//177
f 141//141 143//143 160//160
f 144//144 142//142 141//141
f 146//146 145//145 144//144
f 148//148 147//147 146//146
f 150//150 149//149 148//148
f 152//152 151//151 150//150
f 154//154 153//153 152//152
f 156//156 155//155 154//154
f 157//157 159//159 179//179
f 157//157 179//179 175//175
f 157//157 175//175 173//173
f 157//157 173//173 171//171
f 157//157 171//171 169//169
f 157//157 169//169 168//168
f 157//157 168//168 165//165
f 157//157 165//165 163//163
f 157//157 163//163 161//161
f 157//157 161//161 143//143
f 157//157 143//143 142//142
f 157//157 142//142 145//145
f 157//157 145//145 147//147
f 157//157 147//147 149//149
f 157//157 149//149 151//151
f 157//157 151//151 153//153
f 157//157 153//153 155//155
f 139//139 157//157 156//156
f 139//139 156//156 140//140
f 160//160 161//161 162//162
f 160//160 162//162 138//138
f 162//162 163//163 164//164
f 164//164 165//165 166//166
f 134//134 165//165 168//168
f 134//134 168//168 167//167
f 167//167 169//169 170//170
f 170//170 171//171 172//172
f 172//172 173//173 174//174
f 174//174 175//175 176//176
f 136//136 175//175 179//179
f 136//136 179//179 178//178
f 177//177 158//158 139//139
f 178//178 159//159 177//177
