# Created by Open3D 
# object name: m844
# number of vertices: 200
# number of triangles: 324
v 0.975 0.797306 0.026187
vn 1.5708 -1.5708 -1.5708
v 0.975 0.826961 0.026187
vn 1.5708 1.5708 -1.5708
v 0.975 0.797306 0.204295
vn 1.5708 -1.5708 1.5708
v 0.975 0.826961 0.204295
vn 1.5708 1.5708 1.5708
v 0.025094 0.797306 0.204296
vn -1.5708 -1.5708 1.5708
v 0.025094 0.797306 0.026188
vn -1.5708 -1.5708 -1.5708
v 0.025094 0.826961 0.026188
vn -1.5708 1.5708 -1.5708
v 0.025094 0.826961 0.204296
vn -1.5708 1.5708 1.5708
v 0.965085 0.789902 0.026187
vn 1.5708 -1.5708 -1.5708
v 0.965085 0.79732 0.026187
vn 1.5708 1.5708 -1.5708
v 0.965085 0.789902 0.194404
vn 1.5708 -1.5708 1.5708
v 0.965085 0.79732 0.194404
vn 1.5708 1.5708 1.5708
v 0.035009 0.789902 0.194405
vn -1.5708 -1.5708 1.5708
v 0.035008 0.789902 0.026188
vn -1.5708 -1.5708 -1.57079
v 0.035008 0.79732 0.026188
vn -1.5708 1.5708 -1.57079
v 0.035009 0.79732 0.194405
vn -1.5708 1.5708 1.5708
v 0.960158 0.782481 0.026247
vn 1.5708 -1.5708 -1.5708
v 0.960158 0.789899 0.026247
vn 1.5708 1.5708 -1.5708
v 0.960158 0.782481 0.184525
vn 1.5708 -1.5708 1.5708
v 0.960158 0.789899 0.184525
vn 1.5708 1.5708 1.5708
v 0.039936 0.782481 0.184526
vn -1.5708 -1.5708 1.5708
v 0.039936 0.782481 0.026248
vn -1.5708 -1.5708 -1.57079
v 0.039936 0.789899 0.026248
vn -1.5708 1.5708 -1.57079
v 0.039936 0.789899 0.184526
vn -1.5708 1.5708 1.5708
v 0.025063 0.055789 0.026188
vn -1.56892 1.57413 -1.57172
v 0.025 0.026135 0.026188
vn -1.57267 -1.56746 -1.56986
v 0.025063 0.055789 0.204296
vn -1.56892 1.57413 1.57173
v 0.025 0.026135 0.204296
vn -1.57267 -1.56746 1.56987
v 0.974968 0.054655 0.204295
vn 1.57267 1.56746 1.56987
v 0.974968 0.054655 0.026187
vn 1.57267 1.56746 -1.56987
v 0.974905 0.025 0.026187
vn 1.56892 -1.57413 -1.57173
v 0.974905 0.025 0.204295
vn 1.56892 -1.57413 1.57173
v 0.034993 0.063183 0.026188
vn -1.56892 1.57412 -1.57172
v 0.034978 0.055764 0.026188
vn -1.57267 -1.56747 -1.56987
v 0.034993 0.063183 0.194405
vn -1.56892 1.57414 1.57173
v 0.034978 0.055764 0.194405
vn -1.57267 -1.56745 1.56986
v 0.965069 0.062072 0.194404
vn 1.57267 1.56741 1.56983
v 0.965069 0.062072 0.026187
vn 1.57267 1.56741 -1.56983
v 0.965053 0.054653 0.026187
vn 1.56892 -1.57418 -1.57176
v 0.965053 0.054653 0.194404
vn 1.56892 -1.57418 1.57176
v 0.039937 0.070597 0.026248
vn -1.56892 1.57412 -1.57172
v 0.039921 0.063179 0.026248
vn -1.57267 -1.56747 -1.56987
v 0.039937 0.070597 0.184526
vn -1.56892 1.57414 1.57173
v 0.039921 0.063179 0.184526
vn -1.57267 -1.56745 1.56986
v 0.960157 0.069498 0.184525
vn 1.57267 1.56741 1.56983
v 0.960157 0.069498 0.026247
vn 1.57267 1.56741 -1.56983
v 0.960141 0.06208 0.026247
vn 1.56892 -1.57418 -1.57176
v 0.960141 0.06208 0.184525
vn 1.56892 -1.57418 1.57176
v 0.945315 0.07005 0.025
vn 1.5708 -1.5708 -1.5708
v 0.945315 0.782479 0.025
vn 1.5708 1.5708 -1.5708
v 0.945315 0.07005 0.027375
vn 1.5708 -1.5708 1.5708
v 0.945315 0.782479 0.027375
vn 1.5708 1.5708 1.5708
v 0.054778 0.07005 0.027376
vn -1.5708 -1.5708 1.5708
v 0.054778 0.07005 0.025001
vn -1.5708 -1.5708 -1.5708
v 0.054778 0.782479 0.025001
vn -1.5708 1.5708 -1.5708
v 0.054778 0.782479 0.027376
vn -1.5708 1.5708 1.5708
v 0.94037 0.090458 0.026187
vn 1.5708 -1.5708 -1.5708
v 0.94037 0.094168 0.026187
vn 1.5708 1.5708 -1.5708
v 0.94037 0.090458 0.159768
vn 1.5708 -1.5708 1.5708
v 0.94037 0.094168 0.159768
vn 1.5708 1.5708 1.5708
v 0.059724 0.090458 0.159769
vn -1.5708 -1.5708 1.5708
v 0.059724 0.090458 0.026188
vn -1.5708 -1.5708 -1.5708
v 0.059724 0.094168 0.026188
vn -1.5708 1.5708 -1.5708
v 0.059724 0.094168 0.159769
vn -1.5708 1.5708 1.5708
v 0.94037 0.268565 0.026187
vn 1.5708 -1.5708 -1.5708
v 0.94037 0.272276 0.026187
vn 1.5708 1.5708 -1.5708
v 0.94037 0.268565 0.159768
vn 1.5708 -1.5708 1.5708
v 0.94037 0.272276 0.159768
vn 1.5708 1.5708 1.5708
v 0.059724 0.268565 0.159769
vn -1.5708 -1.5708 1.5708
v 0.059724 0.268565 0.026188
vn -1.5708 -1.5708 -1.5708
v 0.059724 0.272276 0.026188
vn -1.5708 1.5708 -1.5708
v 0.059724 0.272276 0.159769
vn -1.5708 1.5708 1.5708
v 0.94037 0.446672 0.026187
vn 1.5708 -1.5708 -1.5708
v 0.94037 0.450383 0.026187
vn 1.5708 1.5708 -1.5708
v 0.94037 0.446672 0.159768
vn 1.5708 -1.5708 1.5708
v 0.94037 0.450383 0.159768
vn 1.5708 1.5708 1.5708
v 0.059724 0.446672 0.159769
vn -1.5708 -1.5708 1.5708
v 0.059724 0.446672 0.026188
vn -1.5708 -1.5708 -1.5708
v 0.059724 0.450383 0.026188
vn -1.5708 1.5708 -1.5708
v 0.059724 0.450383 0.159769
vn -1.5708 1.5708 1.5708
v 0.94037 0.62478 0.026187
vn 1.5708 -1.5708 -1.5708
v 0.94037 0.628491 0.026187
vn 1.5708 1.5708 -1.5708
v 0.94037 0.62478 0.159768
vn 1.5708 -1.5708 1.5708
v 0.94037 0.628491 0.159768
vn 1.5708 1.5708 1.5708
v 0.059724 0.62478 0.159769
vn -1.5708 -1.5708 1.5708
v 0.059724 0.62478 0.026188
vn -1.5708 -1.5708 -1.5708
v 0.059724 0.628491 0.026188
vn -1.5708 1.5708 -1.5708
v 0.059724 0.628491 0.159769
vn -1.5708 1.5708 1.5708
v 0.950261 0.07005 0.159764
vn 1.5708 -1.5708 -1.5708
v 0.950261 0.092313 0.159764
vn 1.5708 1.5708 -1.5708
v 0.950261 0.07005 0.164712
vn 1.5708 -1.5708 1.5708
v 0.950261 0.092313 0.164712
vn 1.5708 1.5708 1.5708
v 0.049833 0.07005 0.164712
vn -1.5708 -1.5708 1.5708
v 0.049833 0.07005 0.159765
vn -1.5708 -1.5708 -1.5708
v 0.049833 0.092313 0.159765
vn -1.5708 1.5708 -1.5708
v 0.049833 0.092313 0.164712
vn -1.5708 1.5708 1.5708
v 0.950261 0.760216 0.159764
vn 1.5708 -1.5708 -1.5708
v 0.950261 0.782479 0.159764
vn 1.5708 1.5708 -1.5708
v 0.950261 0.760216 0.164712
vn 1.5708 -1.5708 1.5708
v 0.950261 0.782479 0.164712
vn 1.5708 1.5708 1.5708
v 0.049833 0.760216 0.164712
vn -1.5708 -1.5708 1.5708
v 0.049833 0.760216 0.159765
vn -1.5708 -1.5708 -1.5708
v 0.049833 0.782479 0.159765
vn -1.5708 1.5708 -1.5708
v 0.049833 0.782479 0.164712
vn -1.5708 1.5708 1.5708
v 0.07912 0.092313 0.159765
vn 1.5708 -1.5708 -1.5708
v 0.07912 0.760216 0.159765
vn 1.5708 1.5708 -1.5708
v 0.07912 0.092313 0.164712
vn 1.5708 -1.5708 1.5708
v 0.07912 0.760216 0.164712
vn 1.5708 1.5708 1.5708
v 0.049435 0.092313 0.164712
vn -1.5708 -1.5708 1.5708
v 0.049435 0.092313 0.159765
vn -1.5708 -1.5708 -1.5708
v 0.049435 0.760216 0.159765
vn -1.5708 1.5708 -1.5708
v 0.049435 0.760216 0.164712
vn -1.5708 1.5708 1.5708
v 0.514889 0.092313 0.159764
vn 1.5708 -1.5708 -1.5708
v 0.514889 0.760216 0.159764
vn 1.5708 1.5708 -1.5708
v 0.514889 0.092313 0.164712
vn 1.5708 -1.5708 1.5708
v 0.514889 0.760216 0.164712
vn 1.5708 1.5708 1.5708
v 0.485205 0.092313 0.164712
vn -1.5708 -1.5708 1.5708
v 0.485205 0.092313 0.159764
vn -1.5708 -1.5708 -1.5708
v 0.485205 0.760216 0.159764
vn -1.5708 1.5708 -1.5708
v 0.485205 0.760216 0.164712
vn -1.5708 1.5708 1.5708
v 0.950659 0.092313 0.159764
vn 1.5708 -1.5708 -1.5708
v 0.950659 0.760216 0.159764
vn 1.5708 1.5708 -1.5708
v 0.950659 0.092313 0.164712
vn 1.5708 -1.5708 1.5708
v 0.950659 0.760216 0.164712
vn 1.5708 1.5708 1.5708
v 0.920974 0.092313 0.164712
vn -1.5708 -1.5708 1.5708
v 0.920974 0.092313 0.159764
vn -1.5708 -1.5708 -1.5708
v 0.920974 0.760216 0.159764
vn -1.5708 1.5708 -1.5708
v 0.920974 0.760216 0.164712
vn -1.5708 1.5708 1.5708
v 0.065661 0.07005 0.026188
vn 1.5708 -1.5708 -1.5708
v 0.065661 0.782479 0.026188
vn 1.5708 1.5708 -1.5708
v 0.065661 0.07005 0.159769
vn 1.5708 -1.5708 1.5708
v 0.065661 0.782479 0.159769
vn 1.5708 1.5708 1.5708
v 0.05577 0.07005 0.159769
vn -1.5708 -1.5708 1.5708
v 0.05577 0.07005 0.026188
vn -1.5708 -1.5708 -1.5708
v 0.05577 0.782479 0.026188
vn -1.5708 1.5708 -1.5708
v 0.05577 0.782479 0.159769
vn -1.5708 1.5708 1.5708
v 0.504992 0.07005 0.026188
vn 1.5708 -1.5708 -1.5708
v 0.504992 0.782479 0.026188
vn 1.5708 1.5708 -1.5708
v 0.504992 0.07005 0.159768
vn 1.5708 -1.5708 1.5708
v 0.504992 0.782479 0.159768
vn 1.5708 1.5708 1.5708
v 0.495102 0.07005 0.159768
vn -1.5708 -1.5708 1.57081
v 0.495101 0.07005 0.026188
vn -1.5708 -1.57079 -1.57079
v 0.495101 0.782479 0.026188
vn -1.5708 1.57079 -1.57079
v 0.495102 0.782479 0.159768
vn -1.5708 1.5708 1.57081
v 0.944324 0.07005 0.026187
vn 1.5708 -1.5708 -1.5708
v 0.944324 0.782479 0.026187
vn 1.5708 1.5708 -1.5708
v 0.944324 0.07005 0.159768
vn 1.5708 -1.5708 1.5708
v 0.944324 0.782479 0.159768
vn 1.5708 1.5708 1.5708
v 0.934433 0.07005 0.159768
vn -1.5708 -1.5708 1.5708
v 0.934433 0.07005 0.026187
vn -1.5708 -1.5708 -1.5708
v 0.934433 0.782479 0.026187
vn -1.5708 1.5708 -1.5708
v 0.934433 0.782479 0.159768
vn -1.5708 1.5708 1.5708
v 0.949274 0.07005 0.130083
vn 3.14159 -3.14158 -2.1e-05
v 0.949274 0.782479 0.130083
vn 3.14159 3.14158 -2.1e-05
v 0.949274 0.07005 0.159768
vn 1.5708 -1.5708 1.5708
v 0.949274 0.782479 0.159768
vn 1.5708 1.5708 1.5708
v 0.944326 0.07005 0.159768
vn -1.5708 -1.5708 1.5708
v 0.944326 0.07005 0.130083
vn -3.14159 -3.14159 0
v 0.944326 0.782479 0.130083
vn -3.14159 3.14159 -0
v 0.944326 0.782479 0.159768
vn -1.5708 1.5708 1.5708
v 0.949273 0.07005 0.026187
vn 1.5708 -1.5708 -1.5708
v 0.949273 0.782479 0.026187
vn 1.5708 1.5708 -1.5708
v 0.949273 0.07005 0.055872
vn 3.14159 -3.14161 -2.1e-05
v 0.949273 0.782479 0.055872
vn 3.14159 3.14161 -2.1e-05
v 0.944326 0.07005 0.055872
vn -3.14159 -3.14159 -0
v 0.944326 0.07005 0.026187
vn -1.5708 -1.5708 -1.5708
v 0.944326 0.782479 0.026187
vn -1.5708 1.5708 -1.5708
v 0.944326 0.782479 0.055872
vn -3.14159 3.14159 0
v 0.949273 0.760216 0.055872
vn 1.5708 -1.57081 -1.57082
v 0.949274 0.760216 0.130083
vn 1.5708 -1.57078 1.57078
v 0.944326 0.760216 0.130083
vn -1.5708 -1.5708 1.5708
v 0.944326 0.760216 0.055872
vn -1.5708 -1.5708 -1.5708
v 0.949273 0.092313 0.055872
vn 1.5708 1.57081 -1.57082
v 0.949274 0.092313 0.130083
vn 1.5708 1.57078 1.57078
v 0.944326 0.092313 0.055872
vn -1.5708 1.5708 -1.5708
v 0.944326 0.092313 0.130083
vn -1.5708 1.5708 1.5708
v 0.058737 0.07005 0.130084
vn 3.14159 -3.14159 -2e-06
v 0.058737 0.782479 0.130084
vn 3.14159 3.14159 -2e-06
v 0.058737 0.07005 0.159769
vn 1.5708 -1.5708 1.5708
v 0.058737 0.782479 0.159769
vn 1.5708 1.5708 1.5708
v 0.053789 0.07005 0.159769
vn -1.5708 -1.5708 1.5708
v 0.053789 0.07005 0.130084
vn -3.14159 -3.14159 5e-06
v 0.053789 0.782479 0.130084
vn -3.14159 3.14159 5e-06
v 0.053789 0.782479 0.159769
vn -1.5708 1.5708 1.5708
v 0.058737 0.07005 0.026188
vn 1.5708 -1.5708 -1.5708
v 0.058737 0.782479 0.026188
vn 1.5708 1.5708 -1.5708
v 0.058737 0.07005 0.055873
vn 3.14159 -3.14159 -2e-06
v 0.058737 0.782479 0.055873
vn 3.14159 3.14159 -2e-06
v 0.053789 0.07005 0.055873
vn -3.14159 -3.1416 5e-06
v 0.053789 0.07005 0.026188
vn -1.5708 -1.57079 -1.57079
v 0.053789 0.782479 0.026188
vn -1.5708 1.57079 -1.57079
v 0.053789 0.782479 0.055873
vn -3.14159 3.1416 5e-06
v 0.058737 0.760216 0.055873
vn 1.57077 -1.57078 -1.5708
v 0.058737 0.760216 0.130084
vn 1.5708 -1.5708 1.57079
v 0.053789 0.760216 0.130084
vn -1.5708 -1.5708 1.5708
v 0.053789 0.760216 0.055873
vn -1.57083 -1.57082 -1.5708
v 0.058737 0.092313 0.055873
vn 1.57077 1.57078 -1.5708
v 0.058737 0.092313 0.130084
vn 1.5708 1.5708 1.57079
v 0.053789 0.092313 0.055873
vn -1.57083 1.57082 -1.5708
v 0.053789 0.092313 0.130084
vn -1.5708 1.5708 1.5708
f 1//1 2//2 3//3
f 3//3 2//2 4//4
f 1//1 5//5 6//6
f 1//1 3//3 5//5
f 1//1 6//6 2//2
f 2//2 6//6 7//7
f 2//2 7//7 8//8
f 2//2 8//8 4//4
f 3//3 8//8 5//5
f 3//3 4//4 8//8
f 5//5 7//7 6//6
f 5//5 8//8 7//7
f 9//9 10//10 11//11
f 11//11 10//10 12//12
f 9//9 13//13 14//14
f 9//9 11//11 13//13
f 9//9 14//14 10//10
f 10//10 14//14 15//15
f 10//10 15//15 16//16
f 10//10 16//16 12//12
f 11//11 16//16 13//13
f 11//11 12//12 16//16
f 13//13 15//15 14//14
f 13//13 16//16 15//15
f 17//17 18//18 19//19
f 19//19 18//18 20//20
f 17//17 21//21 22//22
f 17//17 19//19 21//21
f 17//17 22//22 18//18
f 18//18 22//22 23//23
f 18//18 23//23 24//24
f 18//18 24//24 20//20
f 19//19 24//24 21//21
f 19//19 20//20 24//24
f 21//21 23//23 22//22
f 21//21 24//24 23//23
f 25//25 26//26 27//27
f 27//27 26//26 28//28
f 25//25 29//29 30//30
f 25//25 27//27 29//29
f 25//25 30//30 26//26
f 26//26 30//30 31//31
f 26//26 31//31 32//32
f 26//26 32//32 28//28
f 27//27 32//32 29//29
f 27//27 28//28 32//32
f 29//29 31//31 30//30
f 29//29 32//32 31//31
f 33//33 34//34 35//35
f 35//35 34//34 36//36
f 33//33 37//37 38//38
f 33//33 35//35 37//37
f 33//33 38//38 34//34
f 34//34 38//38 39//39
f 34//34 39//39 40//40
f 34//34 40//40 36//36
f 35//35 40//40 37//37
f 35//35 36//36 40//40
f 37//37 39//39 38//38
f 37//37 40//40 39//39
f 41//41 42//42 43//43
f 43//43 42//42 44//44
f 41//41 45//45 46//46
f 41//41 43//43 45//45
f 41//41 46//46 42//42
f 42//42 46//46 47//47
f 42//42 47//47 48//48
f 42//42 48//48 44//44
f 43//43 48//48 45//45
f 43//43 44//44 48//48
f 45//45 47//47 46//46
f 45//45 48//48 47//47
f 49//49 50//50 51//51
f 51//51 50//50 52//52
f 49//49 53//53 54//54
f 49//49 51//51 53//53
f 49//49 54//54 50//50
f 50//50 54//54 55//55
f 50//50 55//55 56//56
f 50//50 56//56 52//52
f 51//51 56//56 53//53
f 51//51 52//52 56//56
f 53//53 55//55 54//54
f 53//53 56//56 55//55
f 57//57 58//58 59//59
f 59//59 58//58 60//60
f 57//57 61//61 62//62
f 57//57 59//59 61//61
f 57//57 62//62 58//58
f 58//58 62//62 63//63
f 58//58 63//63 64//64
f 58//58 64//64 60//60
f 59//59 64//64 61//61
f 59//59 60//60 64//64
f 61//61 63//63 62//62
f 61//61 64//64 63//63
f 65//65 66//66 67//67
f 67//67 66//66 68//68
f 65//65 69//69 70//70
f 65//65 67//67 69//69
f 65//65 70//70 66//66
f 66//66 70//70 71//71
f 66//66 71//71 72//72
f 66//66 72//72 68//68
f 67//67 72//72 69//69
f 67//67 68//68 72//72
f 69//69 71//71 70//70
f 69//69 72//72 71//71
f 73//73 74//74 75//75
f 75//75 74//74 76//76
f 73//73 77//77 78//78
f 73//73 75//75 77//77
f 73//73 78//78 74//74
f 74//74 78//78 79//79
f 74//74 79//79 80//80
f 74//74 80//80 76//76
f 75//75 80//80 77//77
f 75//75 76//76 80//80
f 77//77 79//79 78//78
f 77//77 80//80 79//79
f 81//81 82//82 83//83
f 83//83 82//82 84//84
f 81//81 85//85 86//86
f 81//81 83//83 85//85
f 81//81 86//86 82//82
f 82//82 86//86 87//87
f 82//82 87//87 88//88
f 82//82 88//88 84//84
f 83//83 88//88 85//85
f 83//83 84//84 88//88
f 85//85 87//87 86//86
f 85//85 88//88 87//87
f 89//89 90//90 91//91
f 91//91 90//90 92//92
f 89//89 93//93 94//94
f 89//89 91//91 93//93
f 89//89 94//94 90//90
f 90//90 94//94 95//95
f 90//90 95//95 96//96
f 90//90 96//96 92//92
f 91//91 96//96 93//93
f 91//91 92//92 96//96
f 93//93 95//95 94//94
f 93//93 96//96 95//95
f 97//97 98//98 99//99
f 99//99 98//98 100//100
f 97//97 101//101 102//102
f 97//97 99//99 101//101
f 97//97 102//102 98//98
f 98//98 102//102 103//103
f 98//98 103//103 104//104
f 98//98 104//104 100//100
f 99//99 104//104 101//101
f 99//99 100//100 104//104
f 101//101 103//103 102//102
f 101//101 104//104 103//103
f 105//105 106//106 107//107
f 107//107 106//106 108//108
f 105//105 109//109 110//110
f 105//105 107//107 109//109
f 105//105 110//110 106//106
f 106//106 110//110 111//111
f 106//106 111//111 112//112
f 106//106 112//112 108//108
f 107//107 112//112 109//109
f 107//107 108//108 112//112
f 109//109 111//111 110//110
f 109//109 112//112 111//111
f 113//113 114//114 115//115
f 115//115 114//114 116//116
f 113//113 117//117 118//118
f 113//113 115//115 117//117
f 113//113 118//118 114//114
f 114//114 118//118 119//119
f 114//114 119//119 120//120
f 114//114 120//120 116//116
f 115//115 120//120 117//117
f 115//115 116//116 120//120
f 117//117 119//119 118//118
f 117//117 120//120 119//119
f 121//121 122//122 123//123
f 123//123 122//122 124//124
f 121//121 125//125 126//126
f 121//121 123//123 125//125
f 121//121 126//126 122//122
f 122//122 126//126 127//127
f 122//122 127//127 128//128
f 122//122 128//128 124//124
f 123//123 128//128 125//125
f 123//123 124//124 128//128
f 125//125 127//127 126//126
f 125//125 128//128 127//127
f 129//129 130//130 131//131
f 131//131 130//130 132//132
f 129//129 133//133 134//134
f 129//129 131//131 133//133
f 129//129 134//134 130//130
f 130//130 134//134 135//135
f 130//130 135//135 136//136
f 130//130 136//136 132//132
f 131//131 136//136 133//133
f 131//131 132//132 136//136
f 133//133 135//135 134//134
f 133//133 136//136 135//135
f 137//137 138//138 139//139
f 139//139 138//138 140//140
f 137//137 141//141 142//142
f 137//137 139//139 141//141
f 137//137 142//142 138//138
f 138//138 142//142 143//143
f 138//138 143//143 144//144
f 138//138 144//144 140//140
f 139//139 144//144 141//141
f 139//139 140//140 144//144
f 141//141 143//143 142//142
f 141//141 144//144 143//143
f 145//145 146//146 147//147
f 147//147 146//146 148//148
f 145//145 149//149 150//150
f 145//145 147//147 149//149
f 145//145 150//150 146//146
f 146//146 150//150 151//151
f 146//146 151//151 152//152
f 146//146 152//152 148//148
f 147//147 152//152 149//149
f 147//147 148//148 152//152
f 149//149 151//151 150//150
f 149//149 152//152 151//151
f 153//153 154//154 155//155
f 155//155 154//154 156//156
f 153//153 157//157 158//158
f 153//153 155//155 157//157
f 153//153 158//158 154//154
f 154//154 158//158 159//159
f 154//154 159//159 160//160
f 154//154 160//160 156//156
f 155//155 160//160 157//157
f 155//155 156//156 160//160
f 157//157 159//159 158//158
f 157//157 160//160 159//159
f 161//161 162//162 163//163
f 163//163 162//162 164//164
f 161//161 165//165 166//166
f 161//161 163//163 165//165
f 161//161 166//166 162//162
f 162//162 166//166 167//167
f 162//162 167//167 168//168
f 162//162 168//168 164//164
f 163//163 168//168 165//165
f 163//163 164//164 168//168
f 165//165 167//167 166//166
f 165//165 168//168 167//167
f 169//169 164//164 170//170
f 170//170 164//164 154//154
f 169//169 171//171 172//172
f 169//169 170//170 171//171
f 169//169 172//172 164//164
f 164//164 172//172 168//168
f 164//164 168//168 159//159
f 164//164 159//159 154//154
f 170//170 159//159 171//171
f 170//170 154//154 159//159
f 171//171 168//168 172//172
f 171//171 159//159 168//168
f 163//163 173//173 153//153
f 153//153 173//173 174//174
f 163//163 158//158 165//165
f 163//163 153//153 158//158
f 163//163 165//165 173//173
f 173//173 165//165 175//175
f 173//173 175//175 176//176
f 173//173 176//176 174//174
f 153//153 176//176 158//158
f 153//153 174//174 176//176
f 158//158 175//175 165//165
f 158//158 176//176 175//175
f 177//177 178//178 179//179
f 179//179 178//178 180//180
f 177//177 181//181 182//182
f 177//177 179//179 181//181
f 177//177 182//182 178//178
f 178//178 182//182 183//183
f 178//178 183//183 184//184
f 178//178 184//184 180//180
f 179//179 184//184 181//181
f 179//179 180//180 184//184
f 181//181 183//183 182//182
f 181//181 184//184 183//183
f 185//185 186//186 187//187
f 187//187 186//186 188//188
f 185//185 189//189 190//190
f 185//185 187//187 189//189
f 185//185 190//190 186//186
f 186//186 190//190 191//191
f 186//186 191//191 192//192
f 186//186 192//192 188//188
f 187//187 192//192 189//189
f 187//187 188//188 192//192
f 189//189 191//191 190//190
f 189//189 192//192 191//191
f 193//193 188//188 194//194
f 194//194 188//188 178//178
f 193//193 195//195 196//196
f 193//193 194//194 195//195
f 193//193 196//196 188//188
f 188//188 196//196 192//192
f 188//188 192//192 183//183
f 188//188 183//183 178//178
f 194//194 183//183 195//195
f 194//194 178//178 183//183
f 195//195 192//192 196//196
f 195//195 183//183 192//192
f 187//187 197//197 177//177
f 177//177 197//197 198//198
f 187//187 182//182 189//189
f 187//187 177//177 182//182
f 187//187 189//189 197//197
f 197//197 189//189 199//199
f 197//197 199//199 200//200
f 197//197 200//200 198//198
f 177//177 200//200 182//182
f 177//177 198//198 200//200
f 182//182 199//199 189//189
f 182//182 200//200 199//199
