# Blender 4.2.0
# www.blender.org
o m471
v 0.123800 0.145333 0.232418
v 0.120000 0.025000 0.241728
v 0.158000 0.113667 0.234888
v 0.158000 0.025000 0.241728
v 0.174213 0.025000 0.241728
v 0.103786 0.025000 0.241728
v 0.120000 0.113667 0.234888
v 0.154200 0.145333 0.232418
v 0.139000 0.151667 0.231911
v 0.196000 0.880000 0.133363
v 0.139000 0.975000 0.133363
v 0.185043 0.880000 0.166868
v 0.156543 0.880000 0.187578
v 0.121456 0.880000 0.187578
v 0.092956 0.880000 0.166868
v 0.082000 0.880000 0.133363
v 0.092956 0.880000 0.099923
v 0.121456 0.880000 0.079213
v 0.156543 0.880000 0.079213
v 0.185043 0.880000 0.099923
v 0.177000 0.880000 0.133363
v 0.169716 0.880000 0.155658
v 0.150716 0.880000 0.169465
v 0.127283 0.880000 0.169465
v 0.108283 0.880000 0.155658
v 0.101000 0.880000 0.133363
v 0.108283 0.880000 0.111070
v 0.127283 0.880000 0.097263
v 0.150716 0.880000 0.097263
v 0.169716 0.880000 0.111070
v 0.253000 0.025000 0.133363
v 0.196000 0.721667 0.133363
v 0.231213 0.025000 0.200308
v 0.185043 0.721667 0.166868
v 0.121456 0.721667 0.187578
v 0.092956 0.721667 0.166868
v 0.046787 0.025000 0.200308
v 0.082000 0.721667 0.133363
v 0.025000 0.025000 0.133363
v 0.046787 0.025000 0.066420
v 0.092956 0.721667 0.099923
v 0.103786 0.025000 0.025000
v 0.121456 0.721667 0.079213
v 0.156543 0.721667 0.079213
v 0.174213 0.025000 0.025000
v 0.185043 0.721667 0.099923
v 0.231213 0.025000 0.066420
v 0.156543 0.721667 0.187578
v 0.177000 0.861000 0.133363
v 0.169716 0.861000 0.155658
v 0.150716 0.861000 0.169465
v 0.127283 0.861000 0.169465
v 0.108283 0.861000 0.155658
v 0.101000 0.861000 0.133363
v 0.108283 0.861000 0.111070
v 0.127283 0.861000 0.097263
v 0.150716 0.861000 0.097263
v 0.169716 0.861000 0.111070
v 0.177000 0.753334 0.133363
v 0.169716 0.753334 0.155658
v 0.150716 0.753334 0.169465
v 0.127283 0.753334 0.169465
v 0.108283 0.753334 0.155658
v 0.101000 0.753334 0.133363
v 0.108283 0.753334 0.111070
v 0.127283 0.753334 0.097263
v 0.150716 0.753334 0.097263
v 0.169716 0.753334 0.111070
v 0.177000 0.728001 0.133363
v 0.169716 0.728001 0.155658
v 0.150716 0.728001 0.169465
v 0.127283 0.728001 0.169465
v 0.108283 0.728001 0.155658
v 0.101000 0.728001 0.133363
v 0.108283 0.728001 0.111070
v 0.127283 0.728001 0.097263
v 0.150716 0.728001 0.097263
v 0.169716 0.728001 0.111070
v 0.230200 0.728001 0.133363
v 0.212720 0.728001 0.186945
v 0.167120 0.728001 0.220068
v 0.110880 0.728001 0.220068
v 0.065280 0.728001 0.186945
v 0.047800 0.728001 0.133363
v 0.065280 0.728001 0.079783
v 0.110880 0.728001 0.046660
v 0.167120 0.728001 0.046660
v 0.212720 0.728001 0.079783
v 0.230200 0.753334 0.133363
v 0.212720 0.753334 0.186945
v 0.167120 0.753334 0.220068
v 0.110880 0.753334 0.220068
v 0.065280 0.753334 0.186945
v 0.047800 0.753334 0.133363
v 0.065280 0.753334 0.079783
v 0.110880 0.753334 0.046660
v 0.167120 0.753334 0.046660
v 0.212720 0.753334 0.079783
v 0.234000 0.753334 0.133363
v 0.215823 0.753334 0.189162
v 0.168323 0.753334 0.223678
v 0.109676 0.753334 0.223678
v 0.062177 0.753334 0.189162
v 0.044000 0.753334 0.133363
v 0.062177 0.753334 0.077630
v 0.109676 0.753334 0.043050
v 0.168323 0.753334 0.043050
v 0.215823 0.753334 0.077630
v 0.234000 0.721667 0.133363
v 0.215823 0.721667 0.189162
v 0.168323 0.721667 0.223678
v 0.109676 0.721667 0.223678
v 0.062177 0.721667 0.189162
v 0.044000 0.721667 0.133363
v 0.062177 0.721667 0.077630
v 0.109676 0.721667 0.043050
v 0.168323 0.721667 0.043050
v 0.215823 0.721667 0.077630
vn -0.0006 0.0772 0.9970
vn -0.0000 0.0769 0.9970
vn -0.0136 0.0794 0.9968
vn 0.0136 0.0794 0.9968
vn 0.0071 0.0769 0.9970
vn -0.0000 0.0798 0.9968
vn -0.0000 0.0778 0.9970
vn 0.8256 0.4954 0.2700
vn 0.5107 0.4953 0.7027
vn -0.0000 0.4957 0.8685
vn -0.5107 0.4954 0.7027
vn -0.8256 0.4954 0.2700
vn -0.8255 0.4953 -0.2705
vn -0.5108 0.4950 -0.7029
vn -0.0000 0.4952 -0.8688
vn 0.5108 0.4950 -0.7029
vn 0.8255 0.4953 -0.2705
vn -0.0000 -1.0000 -0.0000
vn 0.9480 0.0776 0.3085
vn 0.5861 0.0776 0.8065
vn -0.5861 0.0776 0.8065
vn -0.9476 0.0777 0.3099
vn -0.9480 0.0776 -0.3085
vn -0.5861 0.0776 -0.8065
vn -0.0000 0.0776 -0.9970
vn 0.5861 0.0776 -0.8065
vn 0.9474 0.0777 -0.3104
vn 0.0025 0.0776 0.9970
vn -0.0025 0.0776 0.9970
vn 0.0009 0.0776 0.9970
vn -0.0009 0.0776 0.9970
vn -0.0000 0.0775 0.9970
vn 0.9476 0.0777 0.3099
vn -0.9480 0.0776 0.3085
vn -0.9474 0.0777 -0.3104
vn 0.9480 0.0776 -0.3085
vn 0.9506 -0.0000 0.3106
vn 0.5879 -0.0000 0.8090
vn -0.0000 -0.0000 1.0000
vn -0.5879 -0.0000 0.8090
vn -0.9506 -0.0000 0.3105
vn -0.9506 -0.0000 -0.3105
vn -0.5879 -0.0000 -0.8090
vn -0.0000 -0.0000 -1.0000
vn 0.5879 -0.0000 -0.8090
vn 0.9505 -0.0000 -0.3106
vn -0.0000 1.0000 -0.0000
vn -0.9507 -0.0000 -0.3101
vn -0.5877 -0.0000 -0.8091
vn 0.5877 -0.0000 -0.8091
vn 0.9507 -0.0000 -0.3101
vn 0.9507 -0.0000 0.3102
vn 0.5877 -0.0000 0.8091
vn -0.5877 -0.0000 0.8091
vn -0.9507 -0.0000 0.3102
vn 0.9508 -0.0000 0.3097
vn 0.5878 -0.0000 0.8090
vn -0.9508 -0.0000 0.3097
vn -0.5886 -0.0000 -0.8084
vn 0.5886 -0.0000 -0.8085
vn -0.5886 -0.0000 -0.8085
s 0
f 1//1 2//1 3//1
f 4//2 5//2 3//2
f 6//2 2//2 7//2
f 6//3 7//3 1//3
f 5//4 8//4 3//4
f 2//5 1//5 7//5
f 8//6 9//6 1//6
f 2//2 4//2 3//2
f 3//7 8//7 1//7
f 10//8 11//8 12//8
f 12//9 11//9 13//9
f 13//10 11//10 14//10
f 14//11 11//11 15//11
f 15//12 11//12 16//12
f 16//13 11//13 17//13
f 17//14 11//14 18//14
f 18//15 11//15 19//15
f 19//16 11//16 20//16
f 20//17 11//17 10//17
f 21//18 10//18 12//18
f 22//18 12//18 23//18
f 23//18 13//18 24//18
f 24//18 14//18 15//18
f 25//18 15//18 26//18
f 26//18 16//18 17//18
f 27//18 17//18 28//18
f 28//18 18//18 19//18
f 29//18 19//18 20//18
f 30//18 20//18 21//18
f 12//18 22//18 21//18
f 12//18 13//18 23//18
f 13//18 14//18 24//18
f 15//18 25//18 24//18
f 15//18 16//18 26//18
f 17//18 27//18 26//18
f 17//18 18//18 28//18
f 19//18 29//18 28//18
f 20//18 30//18 29//18
f 20//18 10//18 21//18
f 31//19 32//19 33//19
f 33//20 34//20 5//20
f 6//21 35//21 36//21
f 37//22 36//22 38//22
f 39//23 38//23 40//23
f 40//24 41//24 42//24
f 42//25 43//25 44//25
f 45//26 44//26 46//26
f 47//27 46//27 32//27
f 48//28 8//28 5//28
f 6//29 1//29 35//29
f 35//30 1//30 9//30
f 48//31 9//31 8//31
f 35//32 9//32 48//32
f 32//33 34//33 33//33
f 34//20 48//20 5//20
f 36//21 37//21 6//21
f 38//34 39//34 37//34
f 38//35 41//35 40//35
f 41//24 43//24 42//24
f 44//25 45//25 42//25
f 46//26 47//26 45//26
f 32//36 31//36 47//36
f 47//18 31//18 37//18
f 45//18 47//18 37//18
f 37//18 39//18 45//18
f 40//18 45//18 39//18
f 40//18 42//18 45//18
f 33//18 37//18 31//18
f 5//18 37//18 33//18
f 37//18 5//18 4//18
f 37//18 4//18 2//18
f 6//18 37//18 2//18
f 49//37 21//37 50//37
f 50//38 22//38 23//38
f 51//39 23//39 24//39
f 52//40 24//40 25//40
f 53//41 25//41 54//41
f 54//42 26//42 55//42
f 55//43 27//43 28//43
f 56//44 28//44 29//44
f 57//45 29//45 30//45
f 58//46 30//46 49//46
f 59//37 49//37 50//37
f 60//38 50//38 51//38
f 61//39 51//39 52//39
f 62//40 52//40 53//40
f 63//41 53//41 54//41
f 64//42 54//42 55//42
f 65//43 55//43 56//43
f 66//44 56//44 57//44
f 67//45 57//45 58//45
f 68//46 58//46 49//46
f 57//47 56//47 54//47
f 49//47 54//47 52//47
f 53//47 52//47 54//47
f 21//37 22//37 50//37
f 23//38 51//38 50//38
f 24//39 52//39 51//39
f 25//40 53//40 52//40
f 25//41 26//41 54//41
f 26//42 27//42 55//42
f 28//43 56//43 55//43
f 29//44 57//44 56//44
f 30//45 58//45 57//45
f 30//46 21//46 49//46
f 50//37 60//37 59//37
f 51//38 61//38 60//38
f 52//39 62//39 61//39
f 53//40 63//40 62//40
f 54//41 64//41 63//41
f 55//42 65//42 64//42
f 56//43 66//43 65//43
f 66//44 57//44 67//44
f 58//45 68//45 67//45
f 49//46 59//46 68//46
f 54//47 58//47 57//47
f 56//47 55//47 54//47
f 52//47 51//47 50//47
f 49//47 58//47 54//47
f 52//47 50//47 49//47
f 69//37 59//37 60//37
f 70//38 60//38 61//38
f 71//39 61//39 72//39
f 72//40 62//40 63//40
f 73//41 63//41 64//41
f 74//42 64//42 65//42
f 75//43 65//43 66//43
f 76//44 66//44 77//44
f 77//45 67//45 68//45
f 78//46 68//46 59//46
f 79//47 69//47 80//47
f 80//47 70//47 71//47
f 81//47 71//47 72//47
f 82//47 72//47 83//47
f 83//47 73//47 74//47
f 84//47 74//47 85//47
f 85//47 75//47 76//47
f 86//47 76//47 77//47
f 87//47 77//47 88//47
f 88//47 78//47 69//47
f 89//48 79//48 90//48
f 90//49 80//49 91//49
f 91//44 81//44 92//44
f 92//50 82//50 93//50
f 93//51 83//51 94//51
f 94//52 84//52 95//52
f 95//53 85//53 96//53
f 96//39 86//39 97//39
f 97//54 87//54 98//54
f 98//55 88//55 89//55
f 99//47 89//47 100//47
f 100//47 90//47 101//47
f 101//47 91//47 102//47
f 102//47 92//47 93//47
f 103//47 93//47 94//47
f 104//47 94//47 105//47
f 105//47 95//47 106//47
f 106//47 96//47 107//47
f 107//47 97//47 98//47
f 108//47 98//47 89//47
f 109//56 99//56 110//56
f 110//57 100//57 111//57
f 111//39 101//39 102//39
f 112//40 102//40 113//40
f 113//58 103//58 114//58
f 114//48 104//48 105//48
f 115//59 105//59 106//59
f 116//44 106//44 107//44
f 117//60 107//60 108//60
f 118//51 108//51 99//51
f 32//18 109//18 110//18
f 34//18 110//18 111//18
f 48//18 111//18 35//18
f 35//18 112//18 36//18
f 36//18 113//18 38//18
f 38//18 114//18 115//18
f 41//18 115//18 116//18
f 43//18 116//18 117//18
f 44//18 117//18 46//18
f 46//18 118//18 32//18
f 65//47 68//47 67//47
f 59//47 64//47 62//47
f 64//47 59//47 68//47
f 60//37 70//37 69//37
f 61//38 71//38 70//38
f 61//39 62//39 72//39
f 63//40 73//40 72//40
f 64//41 74//41 73//41
f 65//42 75//42 74//42
f 66//43 76//43 75//43
f 66//44 67//44 77//44
f 68//45 78//45 77//45
f 59//46 69//46 78//46
f 69//47 70//47 80//47
f 71//47 81//47 80//47
f 72//47 82//47 81//47
f 72//47 73//47 83//47
f 74//47 84//47 83//47
f 74//47 75//47 85//47
f 76//47 86//47 85//47
f 77//47 87//47 86//47
f 77//47 78//47 88//47
f 69//47 79//47 88//47
f 79//48 80//48 90//48
f 80//49 81//49 91//49
f 81//44 82//44 92//44
f 82//50 83//50 93//50
f 83//51 84//51 94//51
f 84//52 85//52 95//52
f 85//53 86//53 96//53
f 86//39 87//39 97//39
f 87//54 88//54 98//54
f 88//55 79//55 89//55
f 89//47 90//47 100//47
f 90//47 91//47 101//47
f 91//47 92//47 102//47
f 93//47 103//47 102//47
f 94//47 104//47 103//47
f 94//47 95//47 105//47
f 95//47 96//47 106//47
f 96//47 97//47 107//47
f 98//47 108//47 107//47
f 89//47 99//47 108//47
f 99//56 100//56 110//56
f 100//57 101//57 111//57
f 102//39 112//39 111//39
f 102//40 103//40 113//40
f 103//58 104//58 114//58
f 105//48 115//48 114//48
f 106//61 116//61 115//61
f 107//44 117//44 116//44
f 108//60 118//60 117//60
f 99//51 109//51 118//51
f 110//18 34//18 32//18
f 111//18 48//18 34//18
f 111//18 112//18 35//18
f 112//18 113//18 36//18
f 113//18 114//18 38//18
f 115//18 41//18 38//18
f 116//18 43//18 41//18
f 117//18 44//18 43//18
f 117//18 118//18 46//18
f 118//18 109//18 32//18
f 67//47 66//47 65//47
f 65//47 64//47 68//47
f 61//47 60//47 59//47
f 64//47 63//47 62//47
f 62//47 61//47 59//47
